#!Matlab matrix to amc conversion
:FULLY-SPECIFIED
:DEGREES
16
root 9.192140 16.357400 -29.724600 1.972882 1.634016 0.207134
lowerback 13.170565 -0.942392 -6.036600
upperback 0.267914 -2.194061 0.957590
thorax -6.845512 -0.822004 5.031092
lowerneck -10.368130 0.128949 -1.551270
upperneck 28.453066 0.934458 -1.674140
head 11.066717 0.083902 -0.240391
rclavicle -0.000000 0.000000
rhumerus -38.472240 -11.377238 -77.837977
rradius 28.467042
rwrist 1.385270
rhand -12.379588 11.497508
rfingers 7.125020
rthumb 13.677145 -17.999923
lclavicle -0.000000 0.000000
lhumerus -34.106899 -0.933648 84.452532
lradius 43.521903
lwrist 7.454379
lhand -13.833349 45.330873
lfingers 7.125020
lthumb 12.290215 74.926378
rfemur -26.182191 1.767593 14.440896
rtibia 27.584391
rfoot -13.058119 -16.683378
rtoes 1.665134
lfemur 8.140260 -4.917177 -30.955419
ltibia 18.313640
lfoot -15.260107 2.958192
ltoes -5.158267
17
root 9.191770 16.245600 -29.440800 1.724422 1.634016 -0.947224
lowerback 13.162952 -1.037666 -5.672956
upperback 0.094938 -2.240081 1.148362
thorax -7.021832 -0.844266 5.036016
lowerneck -10.657382 0.156336 -1.505391
upperneck 28.614852 1.023098 -1.817227
head 11.192968 0.105973 -0.289181
rclavicle -0.000000 0.000000
rhumerus -38.797599 -12.475615 -77.043334
rradius 27.251605
rwrist 2.488353
rhand -12.402960 11.299913
rfingers 7.125020
rthumb 13.659886 -18.206801
lclavicle -0.000000 0.000000
lhumerus -34.270060 -0.273238 84.195126
lradius 43.450293
lwrist 7.207921
lhand -14.220460 45.547798
lfingers 7.125020
lthumb 11.915461 75.159075
rfemur -25.869612 3.063675 15.128683
rtibia 24.538018
rfoot -11.437278 -17.148553
rtoes 3.238795
lfemur 10.075793 -5.344840 -30.211100
ltibia 18.205786
lfoot -14.562154 2.695878
ltoes -7.799968
18
root 9.208550 16.156600 -29.151500 1.763759 1.634016 0.064745
lowerback 12.654623 -1.130400 -6.073398
upperback -0.117169 -2.411390 1.061584
thorax -6.966899 -0.911300 5.186642
lowerneck -10.690794 0.128635 -1.521984
upperneck 28.623151 0.963048 -1.725034
head 11.212106 0.086504 -0.259200
rclavicle -0.000000 0.000000
rhumerus -39.415698 -12.369522 -77.126787
rradius 27.008058
rwrist 2.935311
rhand -12.126411 11.215995
rfingers 7.125020
rthumb 13.927328 -18.267569
lclavicle -0.000000 0.000000
lhumerus -33.777039 -1.002913 83.955094
lradius 44.340200
lwrist 7.457333
lhand -14.332470 45.360003
lfingers 7.125020
lthumb 11.814873 74.993064
rfemur -26.331970 4.416732 14.316225
rtibia 19.838427
rfoot -13.092199 -18.496546
rtoes 2.879962
lfemur 12.706220 -5.433999 -30.535494
ltibia 15.727435
lfoot -14.638772 2.747206
ltoes -8.447597
19
root 9.222000 16.080900 -28.855000 1.578251 1.634016 -0.755184
lowerback 12.641849 -1.226852 -5.724595
upperback -0.288202 -2.456656 1.244496
thorax -7.137599 -0.933581 5.183464
lowerneck -10.982319 0.158044 -1.476078
upperneck 28.785695 1.055615 -1.872878
head 11.339245 0.109964 -0.308368
rclavicle -0.000000 0.000000
rhumerus -39.693831 -13.400795 -76.294287
rradius 25.819962
rwrist 4.097464
rhand -12.140547 11.020189
rfingers 7.125020
rthumb 13.918822 -18.461100
lclavicle -0.000000 0.000000
lhumerus -33.974319 -0.335712 83.699321
lradius 44.276230
lwrist 7.209729
lhand -14.691781 45.556439
lfingers 7.125020
lthumb 11.467327 75.204338
rfemur -26.027360 5.565506 14.926073
rtibia 19.996566
rfoot -11.592570 -18.888525
rtoes 4.571886
lfemur 14.528899 -5.852930 -29.833211
ltibia 15.092334
lfoot -13.931667 2.488345
ltoes -11.343043
20
root 9.232280 16.013400 -28.551200 1.461273 1.634016 -0.945036
lowerback 12.626607 -1.321584 -5.364455
upperback -0.453940 -2.497439 1.433925
thorax -7.302436 -0.954331 5.174407
lowerneck -11.269102 0.188492 -1.429990
upperneck 28.949423 1.150269 -2.025551
head 11.466745 0.134094 -0.359167
rclavicle -0.000000 0.000000
rhumerus -39.955582 -14.406070 -75.465313
rradius 24.650410
rwrist 5.234964
rhand -12.152661 10.852279
rfingers 7.125020
rthumb 13.912300 -18.620397
lclavicle -0.000000 0.000000
lhumerus -34.201143 0.338278 83.448945
lradius 44.199093
lwrist 6.958637
lhand -15.028797 45.750437
lfingers 7.125020
lthumb 11.141548 75.412488
rfemur -25.716629 6.468631 15.634043
rtibia 20.122479
rfoot -10.081146 -19.118341
rtoes 6.217638
lfemur 16.286500 -6.275115 -29.134208
ltibia 14.721498
lfoot -13.224113 2.232960
ltoes -14.068977
21
root 9.239730 15.970900 -28.241000 1.376234 1.634016 -0.700567
lowerback 12.608680 -1.418636 -4.931087
upperback -0.619285 -2.535288 1.650671
thorax -7.466984 -0.974305 5.158841
lowerneck -11.568956 0.220362 -1.381552
upperneck 29.115932 1.248251 -2.188585
head 11.596038 0.159188 -0.415358
rclavicle -0.000000 0.000000
rhumerus -40.228943 -15.498556 -74.565049
rradius 23.446875
rwrist 6.429101
rhand -12.162973 10.670505
rfingers 7.125020
rthumb 13.907646 -18.794919
lclavicle -0.000000 0.000000
lhumerus -34.482980 1.030874 83.198935
lradius 44.105703
lwrist 6.699239
lhand -15.352822 45.949211
lfingers 7.125020
lthumb 10.828543 75.625357
rfemur -25.387359 7.346584 16.632599
rtibia 20.340846
rfoot -8.211806 -19.225219
rtoes 8.104076
lfemur 18.082253 -6.730738 -28.368251
ltibia 14.540150
lfoot -12.420927 1.978202
ltoes -17.101209
22
root 9.241850 15.946000 -27.925100 1.865149 1.634016 -0.176668
lowerback 12.546954 -1.237238 -3.870739
upperback -0.694403 -2.158704 1.952479
thorax -7.544765 -0.817375 4.840661
lowerneck -11.574814 0.332234 -1.334178
upperneck 29.312041 1.448652 -2.344321
head 11.673024 0.235656 -0.462985
rclavicle -0.000000 0.000000
rhumerus -40.356835 -16.140662 -73.673873
rradius 23.034449
rwrist 6.845375
rhand -12.093306 10.441017
rfingers 7.125020
rthumb 13.974012 -19.021622
lclavicle -0.000000 0.000000
lhumerus -36.267628 2.561995 83.117124
lradius 43.020936
lwrist 6.594232
lhand -14.255938 46.174275
lfingers 7.125020
lthumb 11.886411 75.769239
rfemur -24.092671 6.093552 18.911012
rtibia 23.303733
rfoot -6.407056 -15.919959
rtoes 11.135305
lfemur 15.571131 -6.620031 -27.095529
ltibia 21.935872
lfoot -6.138113 1.084546
ltoes -18.510132
23
root 9.242890 15.925900 -27.604900 2.198542 1.634016 0.009959
lowerback 12.489540 -1.065644 -2.938262
upperback -0.758030 -1.801050 2.228600
thorax -7.615810 -0.669125 4.536509
lowerneck -11.564451 0.441838 -1.289026
upperneck 29.501092 1.641534 -2.468904
head 11.745632 0.310345 -0.497114
rclavicle -0.000000 0.000000
rhumerus -40.447462 -16.682392 -72.862873
rradius 22.662729
rwrist 7.207463
rhand -12.028807 10.276900
rfingers 7.125020
rthumb 14.035621 -19.182973
lclavicle -0.000000 0.000000
lhumerus -37.869531 4.012384 83.049444
lradius 42.005321
lwrist 6.496956
lhand -13.197634 46.405406
lfingers 7.125020
lthumb 12.907370 75.920892
rfemur -22.861193 4.990661 20.964632
rtibia 25.432298
rfoot -5.261493 -13.166083
rtoes 13.347500
lfemur 13.139640 -6.431099 -25.921718
ltibia 28.748457
lfoot -0.329770 0.200307
ltoes -18.795876
24
root 9.243090 15.943100 -27.273700 2.487582 1.634016 0.116072
lowerback 12.435587 -0.893901 -1.998959
upperback -0.813011 -1.443836 2.500172
thorax -7.683178 -0.521599 4.228444
lowerneck -11.536419 0.551454 -1.242252
upperneck 29.685098 1.833030 -2.584605
head 11.814790 0.384946 -0.528019
rclavicle -0.000000 0.000000
rhumerus -40.508312 -17.158813 -72.095668
rradius 22.316506
rwrist 7.530662
rhand -11.967770 10.131276
rfingers 7.125020
rthumb 14.094101 -19.325064
lclavicle -0.000000 0.000000
lhumerus -39.460865 5.428532 82.993165
lradius 40.995891
lwrist 6.403857
lhand -12.144894 46.647694
lfingers 7.125020
lthumb 13.923223 76.083626
rfemur -21.603506 3.901741 23.010306
rtibia 27.379928
rfoot -4.545663 -10.423446
rtoes 15.248664
lfemur 10.565108 -6.136730 -24.711945
ltibia 35.679669
lfoot 5.552744 -0.693910
ltoes -18.065115
25
root 9.241190 15.944900 -26.946700 2.112681 1.634016 0.088696
lowerback 13.048719 -0.850419 -0.728828
upperback -0.676668 -1.134160 2.704437
thorax -7.890239 -0.423304 3.686090
lowerneck -11.511843 0.494325 -1.263323
upperneck 29.446725 1.726666 -2.480954
head 11.706333 0.348434 -0.500802
rclavicle -0.000000 0.000000
rhumerus -39.238713 -14.804158 -73.587018
rradius 24.055266
rwrist 5.480433
rhand -12.107311 10.253110
rfingers 7.125020
rthumb 13.959651 -19.204586
lclavicle -0.000000 0.000000
lhumerus -40.365928 4.938384 83.463957
lradius 40.217391
lwrist 5.596018
lhand -11.746891 46.053687
lfingers 7.125020
lthumb 14.303620 75.457587
rfemur -19.224338 3.986134 24.993095
rtibia 28.107650
rfoot -6.146549 -10.056908
rtoes 15.281235
lfemur 4.752902 -4.835705 -22.258968
ltibia 44.489313
lfoot 6.710616 -2.190046
ltoes -16.421413
26
root 9.242210 15.966300 -26.610400 1.807904 1.634016 0.089482
lowerback 13.660886 -0.810100 0.455229
upperback -0.545294 -0.838754 2.892012
thorax -8.095752 -0.329784 3.168370
lowerneck -11.468634 0.437775 -1.289635
upperneck 29.211045 1.623240 -2.397725
head 11.598466 0.312197 -0.477108
rclavicle -0.000000 0.000000
rhumerus -38.102496 -12.650787 -74.966277
rradius 25.698589
rwrist 3.600738
rhand -12.244417 10.364035
rfingers 7.125020
rthumb 13.827770 -19.098094
lclavicle -0.000000 0.000000
lhumerus -41.176144 4.460151 83.923672
lradius 39.506726
lwrist 4.819635
lhand -11.369980 45.473402
lfingers 7.125020
lthumb 14.663931 74.846117
rfemur -17.021224 4.059790 26.751478
rtibia 28.595126
rfoot -7.664277 -9.727710
rtoes 15.307682
lfemur -0.631182 -3.616063 -20.067416
ltibia 52.355468
lfoot 7.104431 -3.531201
ltoes -15.791670
27
root 9.248620 16.002100 -26.265200 1.462285 1.634016 0.119201
lowerback 14.279114 -0.771152 1.640561
upperback -0.414100 -0.544331 3.077764
thorax -8.305294 -0.236728 2.652921
lowerneck -11.402624 0.380066 -1.323074
upperneck 28.975277 1.518190 -2.316664
head 11.489743 0.275088 -0.451690
rclavicle -0.000000 0.000000
rhumerus -36.957298 -10.513990 -76.343197
rradius 27.344337
rwrist 1.764740
rhand -12.382892 10.506900
rfingers 7.125020
rthumb 13.694801 -18.963549
lclavicle -0.000000 0.000000
lhumerus -41.945634 3.975645 84.389873
lradius 38.778755
lwrist 4.020894
lhand -11.002060 44.894654
lfingers 7.125020
lthumb 15.015728 74.236432
rfemur -14.820861 4.126645 28.500494
rtibia 28.958781
rfoot -9.197074 -9.411697
rtoes 15.330052
lfemur -5.983787 -2.378680 -17.886630
ltibia 60.141810
lfoot 6.814135 -4.814629
ltoes -15.867333
28
root 9.251840 16.054000 -25.912300 1.312292 1.634016 0.179646
lowerback 14.234789 -0.585806 2.179951
upperback -0.036147 -0.225603 3.126554
thorax -7.950785 -0.100604 2.351509
lowerneck -11.544439 0.266556 -1.463977
upperneck 29.292763 1.390472 -2.245774
head 11.652351 0.200778 -0.419005
rclavicle -0.000000 0.000000
rhumerus -34.916992 -9.600265 -76.706562
rradius 29.238664
rwrist 0.139039
rhand -12.734960 10.740090
rfingers 7.125020
rthumb 13.352305 -18.760624
lclavicle -0.000000 0.000000
lhumerus -41.871439 5.204286 83.865076
lradius 38.371377
lwrist 3.871574
lhand -10.746453 45.417655
lfingers 7.125020
lthumb 15.263987 74.722873
rfemur -12.577237 4.671552 29.534720
rtibia 29.167662
rfoot -10.785306 -9.954231
rtoes 14.515891
lfemur -10.584509 -0.889079 -16.805826
ltibia 61.836834
lfoot 2.465319 -2.788409
ltoes -16.894000
